<?xml version="1.0" encoding="UTF-8"?>
<!DOCTYPE svg PUBLIC "-//W3C//DTD SVG 1.1//EN" "http://www.w3.org/Graphics/SVG/1.1/DTD/svg11.dtd">
<svg xmlns="http://www.w3.org/2000/svg" xmlns:xlink="http://www.w3.org/1999/xlink" version="1.1" width="26px" height="26px" viewBox="-0.5 -0.5 26 26" style="background-color: rgb(255, 255, 255);"><defs/><g><rect x="0" y="0.5" width="25" height="25" fill="none" stroke="none" pointer-events="all"/><path d="M 16.43 16.2 C 19.44 16.2 23.42 13.61 23.42 9.22 C 23.42 4.72 19.71 2 16.43 2 C 12.09 2 9.2 5.32 9.2 9.22 C 9.2 13.4 12.87 16.2 16.43 16.2 Z M 3.66 24.61 C 2.69 25.5 1.39 25.44 0.69 24.69 C 0 23.87 0.05 22.72 0.81 21.84 L 6.78 15.86 C 7.3 15.43 8.06 15.14 8.65 15.27 L 9.51 14.42 C 8.53 13.08 7.74 11.56 7.68 9.22 C 7.68 4.88 11.02 0.5 16.43 0.5 C 21.18 0.5 25 4.42 25 9.22 C 25 13.97 20.97 17.74 16.43 17.74 C 14.51 17.71 12.7 17.2 11.05 15.93 L 10.2 16.78 C 10.25 17.45 10.09 18.03 9.66 18.54 Z" fill="#9c9c9c" stroke="none" pointer-events="all"/></g></svg>