<?xml version="1.0" encoding="UTF-8"?>
<!DOCTYPE svg PUBLIC "-//W3C//DTD SVG 1.1//EN" "http://www.w3.org/Graphics/SVG/1.1/DTD/svg11.dtd">
<svg xmlns="http://www.w3.org/2000/svg" xmlns:xlink="http://www.w3.org/1999/xlink" version="1.1" width="30px" height="27px" viewBox="-0.5 -0.5 30 27" style="background-color: rgb(255, 255, 255);"><defs/><g><path d="M 1 4.5 L 19 4.5 L 19 25.5 L 1 25.5 Z M 4 13.69 L 7 13.69 M 8.5 13.69 L 16 13.69 M 4 17.63 L 7 17.63 M 8.5 17.63 L 16 17.63 M 4 21.56 L 7 21.56 M 8.5 21.56 L 16 21.56" fill="none" stroke="#9c9c9c" stroke-width="2" stroke-miterlimit="10" pointer-events="all"/><path d="M 10.18 10.59 C 8 8.41 8 4.87 10.18 2.68 C 12.37 0.5 15.9 0.5 18.09 2.68 C 20.27 0.5 23.81 0.5 25.99 2.68 C 28.17 4.87 28.17 8.41 25.99 10.59 L 18.09 18.5 Z Z" fill="#9c9c9c" stroke="#141414" stroke-width="2" stroke-miterlimit="10" pointer-events="all"/></g></svg>